<?xml version="1.0" encoding="utf-8"?>
<!-- Generator: Adobe Illustrator 24.0.2, SVG Export Plug-In . SVG Version: 6.00 Build 0)  -->
<svg version="1.1" id="Layer_1" xmlns="http://www.w3.org/2000/svg" xmlns:xlink="http://www.w3.org/1999/xlink" x="0px" y="0px"
	 viewBox="0 0 80 80" style="enable-background:new 0 0 80 80;" xml:space="preserve">
<style type="text/css">
	.st0{fill:#5B6670;}
	.st1{fill:#EEEFF0;}
	.st2{fill:url(#SVGID_1_);}
	.st3{fill:url(#SVGID_2_);}
	.st4{fill:url(#SVGID_3_);}
	.st5{fill:url(#SVGID_4_);}
	.st6{fill:url(#SVGID_5_);}
</style>
<g>
	<g>
		<path class="st0" d="M75.3,5.8v69.5H5.8V5.8H75.3 M76,5H5v71h71V5L76,5z"/>
	</g>
</g>
<g>
	<path class="st1" d="M73,5v68H5V5H73 M75,3H3v72h72V3L75,3z"/>
</g>
<g>
	<g>
		<linearGradient id="SVGID_1_" gradientUnits="userSpaceOnUse" x1="12.6977" y1="11.8585" x2="30.9526" y2="30.1133">
			<stop  offset="0" style="stop-color:#EEEFF0"/>
			<stop  offset="1" style="stop-color:#3BB4E5"/>
		</linearGradient>
		<path class="st2" d="M15.9,37.7V8.7h12.5c1.4,0,2.7,0.3,3.9,0.9c1.2,0.6,2.2,1.3,3.1,2.3c0.8,0.9,1.5,2,2,3.2
			c0.5,1.2,0.7,2.4,0.7,3.6c0,1.3-0.2,2.5-0.7,3.7c-0.5,1.2-1.1,2.3-1.9,3.2c-0.8,0.9-1.8,1.7-3,2.2c-1.2,0.5-2.5,0.8-3.9,0.8h-5.2
			v9.2H15.9z M23.3,22.2H28c0.6,0,1.2-0.3,1.7-0.8c0.5-0.5,0.8-1.4,0.8-2.8c0-1.4-0.3-2.3-0.9-2.8c-0.6-0.5-1.2-0.8-1.8-0.8h-4.5
			V22.2z"/>
		<path class="st0" d="M28.4,9c1.3,0,2.6,0.3,3.7,0.8c1.1,0.6,2.1,1.3,2.9,2.2c0.8,0.9,1.5,1.9,1.9,3.1c0.5,1.2,0.7,2.3,0.7,3.5
			c0,1.2-0.2,2.4-0.7,3.6c-0.4,1.2-1.1,2.2-1.9,3.1c-0.8,0.9-1.7,1.6-2.9,2.1c-1.1,0.5-2.4,0.8-3.7,0.8h-4.9H23V29v8.4h-6.7V9H28.4
			 M23,22.6h0.8H28c0.7,0,1.4-0.3,2-0.9c0.6-0.6,0.9-1.6,0.9-3c0-1.5-0.3-2.5-1-3.1c-0.6-0.6-1.3-0.9-2-0.9h-4.1H23v0.8v6.4V22.6
			 M28.4,8.3H15.5v29.8h8.2V29h4.9c1.5,0,2.8-0.3,4-0.9c1.2-0.6,2.3-1.3,3.1-2.3c0.9-1,1.5-2.1,2-3.3c0.5-1.2,0.7-2.5,0.7-3.8
			c0-1.3-0.3-2.5-0.8-3.8c-0.5-1.2-1.2-2.4-2.1-3.3c-0.9-1-1.9-1.7-3.2-2.4C31.2,8.6,29.8,8.3,28.4,8.3L28.4,8.3z M23.7,21.8v-6.4
			h4.1c0.5,0,1,0.2,1.5,0.7c0.5,0.4,0.8,1.3,0.8,2.5c0,1.2-0.2,2-0.7,2.5c-0.4,0.5-0.9,0.7-1.4,0.7H23.7L23.7,21.8z"/>
	</g>
	<g>
		<linearGradient id="SVGID_2_" gradientUnits="userSpaceOnUse" x1="39.0732" y1="11.6485" x2="65.9697" y2="38.5449">
			<stop  offset="0" style="stop-color:#EEEFF0"/>
			<stop  offset="1" style="stop-color:#3BB4E5"/>
		</linearGradient>
		<path class="st3" d="M58.4,37.7l-5.3-9.2h-3.7v9.2h-7.4V8.7h13.3c1.4,0,2.7,0.3,3.9,0.9c1.2,0.6,2.2,1.3,3.1,2.3
			c0.8,0.9,1.5,2,2,3.2c0.5,1.2,0.7,2.4,0.7,3.6c0,1.7-0.4,3.2-1.1,4.7c-0.7,1.4-1.7,2.6-3,3.5L60.6,27l6.1,10.7H58.4z M49.5,22.2
			H55c0.6,0,1.2-0.3,1.7-1c0.5-0.6,0.7-1.5,0.7-2.6c0-1.1-0.3-2-0.9-2.6c-0.6-0.6-1.2-0.9-1.8-0.9h-5.3V22.2z"/>
		<path class="st0" d="M55.4,9c1.3,0,2.6,0.3,3.7,0.8c1.1,0.6,2.1,1.3,2.9,2.2c0.8,0.9,1.5,1.9,1.9,3.1c0.5,1.2,0.7,2.3,0.7,3.5
			c0,1.6-0.4,3.1-1.1,4.5c-0.7,1.4-1.7,2.5-2.9,3.4l-0.6,0.4l0.3,0.6l5.7,9.8h-7.5l-5-8.8l-0.2-0.4h-0.4h-3.1h-0.8V29v8.4h-6.7V9
			H55.4 M49.1,22.6h0.8H55c0.7,0,1.4-0.4,2-1.1c0.5-0.7,0.8-1.6,0.8-2.8c0-1.2-0.3-2.2-1-2.9c-0.6-0.7-1.3-1.1-2.1-1.1h-5h-0.8v0.8
			v6.4V22.6 M55.4,8.3H41.7v29.8h8.2V29h3.1l5.3,9.2h9.2l-6.3-11c1.3-1,2.4-2.2,3.2-3.7c0.8-1.5,1.1-3.1,1.1-4.9
			c0-1.3-0.3-2.5-0.8-3.8c-0.5-1.2-1.2-2.4-2.1-3.3c-0.9-1-1.9-1.7-3.2-2.4C58.2,8.6,56.8,8.3,55.4,8.3L55.4,8.3z M49.9,21.8v-6.4h5
			c0.5,0,1,0.3,1.5,0.8c0.5,0.5,0.8,1.3,0.8,2.4c0,1-0.2,1.8-0.7,2.4c-0.4,0.6-0.9,0.8-1.4,0.8H49.9L49.9,21.8z"/>
	</g>
	<g>
		<linearGradient id="SVGID_3_" gradientUnits="userSpaceOnUse" x1="12.6869" y1="11.8223" x2="30.9418" y2="30.0772">
			<stop  offset="0" style="stop-color:#EEEFF0"/>
			<stop  offset="1" style="stop-color:#3BB4E5"/>
		</linearGradient>
		<path class="st4" d="M15.9,37.7V8.6h12.5c1.4,0,2.7,0.3,3.9,0.9c1.2,0.6,2.2,1.3,3.1,2.3c0.8,0.9,1.5,2,2,3.2
			c0.5,1.2,0.7,2.4,0.7,3.6c0,1.3-0.2,2.5-0.7,3.7c-0.5,1.2-1.1,2.3-1.9,3.2c-0.8,0.9-1.8,1.7-3,2.2c-1.2,0.5-2.5,0.8-3.9,0.8h-5.2
			v9.2H15.9z M23.3,22.1H28c0.6,0,1.2-0.3,1.7-0.8c0.5-0.5,0.8-1.4,0.8-2.8c0-1.4-0.3-2.3-0.9-2.8C29,15.3,28.4,15,27.8,15h-4.5
			V22.1z"/>
		<path class="st0" d="M28.4,9c1.3,0,2.6,0.3,3.7,0.8c1.1,0.6,2.1,1.3,2.9,2.2c0.8,0.9,1.5,1.9,1.9,3.1c0.5,1.2,0.7,2.3,0.7,3.5
			c0,1.2-0.2,2.4-0.7,3.6c-0.4,1.2-1.1,2.2-1.9,3.1c-0.8,0.9-1.7,1.6-2.9,2.1c-1.1,0.5-2.4,0.8-3.7,0.8h-4.9h-0.8v0.8v8.4h-6.7V9
			H28.4 M22.9,22.5h0.8H28c0.7,0,1.4-0.3,2-0.9c0.6-0.6,0.9-1.6,0.9-3c0-1.5-0.3-2.5-1-3.1c-0.6-0.6-1.3-0.9-2-0.9h-4.1h-0.8v0.8
			v6.4V22.5 M28.4,8.3H15.5v29.8h8.2v-9.2h4.9c1.5,0,2.8-0.3,4-0.9c1.2-0.6,2.3-1.3,3.1-2.3c0.9-1,1.5-2.1,2-3.3
			c0.5-1.2,0.7-2.5,0.7-3.8c0-1.3-0.3-2.5-0.8-3.8c-0.5-1.2-1.2-2.4-2.1-3.3c-0.9-1-1.9-1.7-3.2-2.4C31.2,8.6,29.8,8.3,28.4,8.3
			L28.4,8.3z M23.7,21.8v-6.4h4.1c0.5,0,1,0.2,1.5,0.7c0.5,0.4,0.8,1.3,0.8,2.5c0,1.2-0.2,2-0.7,2.5c-0.4,0.5-0.9,0.7-1.4,0.7H23.7
			L23.7,21.8z"/>
	</g>
	<g>
		<linearGradient id="SVGID_4_" gradientUnits="userSpaceOnUse" x1="24.1346" y1="32.7365" x2="55.109" y2="63.7109">
			<stop  offset="0" style="stop-color:#EEEFF0"/>
			<stop  offset="1" style="stop-color:#3BB4E5"/>
		</linearGradient>
		<path class="st5" d="M40.2,70.4c-2.3,0-4.5-0.4-6.6-1.1c-2.1-0.7-3.9-1.7-5.5-3.1c-1.6-1.3-2.9-2.9-3.8-4.8
			c-0.9-1.9-1.4-4-1.4-6.3c0-1.1,0.2-2.2,0.5-3.2c0.3-1,0.8-1.9,1.3-2.7c0.5-0.8,1.1-1.5,1.8-2.2c0.6-0.6,1.3-1.2,1.9-1.7l0.5-0.3
			l-0.5-0.3c-1.2-0.7-2.2-1.8-3-3.2c-0.3-0.6-0.6-1.2-0.8-1.8c0.6-0.3,1-0.9,1-1.6v-6.4c0,0,0-0.1,0-0.1c0-0.1,0-0.1,0.1-0.2
			c0.1-0.2,0.3-0.4,0.4-0.6l0,0h2.5c1.7,0,3.3-0.3,4.8-1c1.4-0.7,2.7-1.6,3.7-2.8c0.9-1,1.6-2.1,2.1-3.3c0.2,0,0.4,0,0.6,0v10.3
			c-1,0.1-1.9,0.4-2.5,1c-0.7,0.7-1.1,1.5-1.1,2.5c0,1.3,0.4,2.3,1.3,2.9c0.8,0.6,1.7,0.9,2.7,0.9c1,0,1.9-0.3,2.7-0.9
			c0.2-0.1,0.3-0.3,0.5-0.4h6.5c1,0,1.9-0.8,1.9-1.9v-7.3h0.1l4.3,7.5c-0.2,1.1-0.5,2.1-1.1,3.2c-0.8,1.5-1.8,2.6-3,3.3l-0.5,0.3
			l0.5,0.3c0.6,0.5,1.3,1,2,1.7c0.7,0.7,1.3,1.4,1.8,2.3c0.5,0.9,0.9,1.8,1.3,2.8c0.3,1,0.5,2.1,0.5,3.3c0,2.2-0.5,4.3-1.3,6.1
			c-0.9,1.8-2.1,3.4-3.7,4.7c-1.6,1.3-3.4,2.3-5.5,3C44.8,70,42.5,70.4,40.2,70.4z M40.2,49.9c-1.5,0-2.8,0.4-3.8,1.3
			c-1,0.9-1.5,2.1-1.5,3.6c0,1.4,0.5,2.6,1.5,3.5c1,0.9,2.3,1.4,3.8,1.4c1.5,0,2.8-0.5,3.8-1.4c1-0.9,1.5-2.1,1.5-3.5
			c0-1.6-0.5-2.8-1.6-3.7C42.9,50.3,41.7,49.9,40.2,49.9z"/>
		<path class="st0" d="M39.4,24.1v9.5c-1,0.1-1.8,0.5-2.4,1.1c-0.8,0.8-1.2,1.7-1.2,2.8c0,1.4,0.5,2.5,1.5,3.2c0.9,0.7,1.9,1,2.9,1
			c1,0,2-0.3,2.9-1c0.2-0.1,0.3-0.2,0.4-0.4h6.3c1.2,0,2.3-1,2.3-2.3V32l3.6,6.3c-0.2,1-0.5,2-1,2.9c-0.8,1.4-1.7,2.5-2.9,3.1
			l-1,0.6l0.9,0.7c0.6,0.5,1.3,1,1.9,1.7c0.6,0.6,1.2,1.4,1.7,2.2c0.5,0.8,0.9,1.8,1.3,2.8c0.3,1,0.5,2.1,0.5,3.2
			c0,2.2-0.4,4.1-1.3,5.9c-0.9,1.8-2.1,3.3-3.6,4.6c-1.5,1.3-3.3,2.3-5.4,3c-2.1,0.7-4.3,1.1-6.6,1.1c-2.2,0-4.4-0.4-6.5-1
			c-2-0.7-3.9-1.7-5.4-3c-1.5-1.3-2.8-2.9-3.7-4.7c-0.9-1.8-1.4-3.9-1.4-6.1c0-1.1,0.2-2.1,0.5-3.1c0.3-0.9,0.8-1.8,1.3-2.6
			c0.5-0.8,1.1-1.5,1.7-2.1c0.6-0.6,1.3-1.2,1.9-1.6l0.9-0.7l-1-0.6c-1.2-0.7-2.1-1.7-2.9-3.1c-0.3-0.5-0.5-1-0.7-1.5
			c0.6-0.4,0.9-1.1,0.9-1.8v-6.4c0,0,0,0,0,0c0,0,0-0.1,0.1-0.1c0.1-0.1,0.2-0.3,0.3-0.4h2.3c1.8,0,3.5-0.4,5-1.1
			c1.5-0.7,2.8-1.7,3.8-2.9C38.2,26.3,38.9,25.2,39.4,24.1 M40.2,60.1c1.6,0,3-0.5,4.1-1.5c1.1-1,1.6-2.3,1.6-3.8
			c0-1.7-0.6-3-1.7-3.9c-1.1-0.9-2.4-1.4-4-1.4c-1.6,0-3,0.5-4.1,1.4c-1.1,1-1.6,2.3-1.6,3.9c0,1.5,0.6,2.8,1.7,3.8
			C37.2,59.6,38.6,60.1,40.2,60.1 M40.2,23.2c-0.4,0-0.8,0-1.2,0.1c-0.5,1.3-1.2,2.4-2.1,3.4c-1,1.1-2.2,2-3.6,2.7
			c-1.4,0.7-3,1-4.6,1h-2.7c-0.2,0.3-0.4,0.5-0.5,0.8c-0.1,0.1-0.1,0.2-0.2,0.3v6.5c0,0.7-0.5,1.2-1.1,1.4c0.2,0.7,0.5,1.5,0.9,2.2
			c0.8,1.5,1.9,2.6,3.1,3.4c-0.7,0.5-1.3,1.1-2,1.7c-0.7,0.7-1.3,1.4-1.8,2.2c-0.6,0.8-1,1.8-1.4,2.8c-0.4,1-0.5,2.1-0.5,3.3
			c0,2.4,0.5,4.5,1.5,6.5c1,1.9,2.3,3.6,3.9,5c1.6,1.4,3.5,2.4,5.6,3.1c2.1,0.7,4.4,1.1,6.7,1.1c2.4,0,4.7-0.4,6.9-1.1
			c2.2-0.7,4-1.8,5.6-3.1c1.6-1.3,2.9-2.9,3.8-4.8c0.9-1.9,1.4-3.9,1.4-6.2c0-1.2-0.2-2.4-0.5-3.4c-0.4-1.1-0.8-2-1.3-2.9
			c-0.5-0.9-1.1-1.7-1.8-2.3c-0.7-0.7-1.4-1.3-2-1.7c1.3-0.7,2.3-1.9,3.2-3.4c0.6-1.1,1-2.3,1.2-3.4l-4.5-7.8h-0.7v7.7
			c0,0.8-0.7,1.5-1.5,1.5h-6.6c-0.2,0.2-0.3,0.4-0.5,0.5c-0.8,0.6-1.6,0.9-2.5,0.9c-0.9,0-1.7-0.3-2.5-0.9c-0.8-0.6-1.2-1.5-1.2-2.6
			c0-0.9,0.3-1.6,1-2.2c0.7-0.6,1.5-0.9,2.6-0.9V23.2L40.2,23.2z M40.2,59.3c-1.4,0-2.6-0.4-3.5-1.3c-0.9-0.9-1.4-2-1.4-3.2
			c0-1.4,0.5-2.5,1.4-3.3c0.9-0.8,2.1-1.2,3.6-1.2c1.4,0,2.6,0.4,3.5,1.2c0.9,0.8,1.4,1.9,1.4,3.4c0,1.3-0.5,2.4-1.4,3.2
			C42.8,58.9,41.6,59.3,40.2,59.3L40.2,59.3z"/>
	</g>
	<g>
		<linearGradient id="SVGID_5_" gradientUnits="userSpaceOnUse" x1="39.0625" y1="11.6123" x2="65.959" y2="38.5088">
			<stop  offset="0" style="stop-color:#EEEFF0"/>
			<stop  offset="1" style="stop-color:#3BB4E5"/>
		</linearGradient>
		<path class="st6" d="M58.4,37.7l-5.3-9.2h-3.7v9.2H42V8.6h13.3c1.4,0,2.7,0.3,3.9,0.9c1.2,0.6,2.2,1.3,3.1,2.3
			c0.8,0.9,1.5,2,2,3.2c0.5,1.2,0.7,2.4,0.7,3.6c0,1.7-0.4,3.2-1.1,4.7c-0.7,1.4-1.7,2.6-3,3.5L60.6,27l6.1,10.7H58.4z M49.5,22.1
			H55c0.6,0,1.2-0.3,1.7-1c0.5-0.6,0.7-1.5,0.7-2.6c0-1.1-0.3-2-0.9-2.6C56,15.3,55.4,15,54.8,15h-5.3V22.1z"/>
		<path class="st0" d="M55.4,9c1.3,0,2.6,0.3,3.7,0.8c1.1,0.6,2.1,1.3,2.9,2.2c0.8,0.9,1.5,1.9,1.9,3.1c0.5,1.2,0.7,2.3,0.7,3.5
			c0,1.6-0.4,3.1-1.1,4.5c-0.7,1.4-1.7,2.5-2.9,3.4l-0.6,0.4l0.3,0.6l5.7,9.8h-7.5l-5-8.8l-0.2-0.4h-0.4h-3.1h-0.8v0.8v8.4h-6.7V9
			H55.4 M49.1,22.5h0.8H55c0.7,0,1.4-0.4,2-1.1c0.5-0.7,0.8-1.6,0.8-2.8c0-1.2-0.3-2.2-1-2.9c-0.6-0.7-1.3-1.1-2.1-1.1h-5h-0.8v0.8
			v6.4V22.5 M55.4,8.3H41.7v29.8h8.2v-9.2h3.1l5.3,9.2h9.2l-6.3-11c1.3-1,2.4-2.2,3.2-3.7c0.8-1.5,1.1-3.1,1.1-4.9
			c0-1.3-0.3-2.5-0.8-3.8c-0.5-1.2-1.2-2.4-2.1-3.3c-0.9-1-1.9-1.7-3.2-2.4C58.2,8.6,56.8,8.3,55.4,8.3L55.4,8.3z M49.9,21.8v-6.4h5
			c0.5,0,1,0.3,1.5,0.8c0.5,0.5,0.8,1.3,0.8,2.4c0,1-0.2,1.8-0.7,2.4c-0.4,0.6-0.9,0.8-1.4,0.8H49.9L49.9,21.8z"/>
	</g>
</g>
</svg>
